<?xml version="1.0" encoding="utf-8"?>
<!-- Generator: Adobe Illustrator 27.4.0, SVG Export Plug-In . SVG Version: 6.00 Build 0)  -->
<svg version="1.1" id="Capa_1" xmlns="http://www.w3.org/2000/svg" xmlns:xlink="http://www.w3.org/1999/xlink" x="0px" y="0px"
	 viewBox="0 0 462 82" style="enable-background:new 0 0 462 82;" xml:space="preserve">
<style type="text/css">
	.st0{fill:#F48318;}
	.st1{clip-path:url(#SVGID_00000012455415529282941980000007019914944842930843_);}
</style>
<path id="Trazado_106" class="st0" d="M33.07,16.97l10.94,23.36H21.95L33.07,16.97z M32.29,3.33L1.85,67.73h7.21L19.09,46.5h27.79
	L57,67.73h6.86L33.85,3.33L32.29,3.33z"/>
<g>
	<defs>
		<rect id="SVGID_1_" x="1.37" y="2.38" width="457.63" height="77.59"/>
	</defs>
	<clipPath id="SVGID_00000047030107125763328690000006375738497479690671_">
		<use xlink:href="#SVGID_1_"  style="overflow:visible;"/>
	</clipPath>
	<g id="Grupo_139" style="clip-path:url(#SVGID_00000047030107125763328690000006375738497479690671_);">
		<path id="Trazado_107" class="st0" d="M72.67,3.33h20.45c5.1,0,9.02,0.61,11.77,1.82c2.69,1.16,4.95,3.11,6.49,5.6
			c1.57,2.5,2.39,5.39,2.37,8.34c0.03,2.75-0.7,5.45-2.11,7.82c-1.5,2.43-3.64,4.4-6.19,5.69c2.81,0.86,5.45,2.22,7.77,4.02
			c1.79,1.52,3.23,3.41,4.21,5.54c1.02,2.22,1.54,4.64,1.52,7.08c0.08,4.99-1.99,9.78-5.69,13.14c-3.79,3.58-8.86,5.36-15.2,5.36
			h-25.4V3.33z M78.97,9.63v20.63h11.42c4.46,0,7.74-0.42,9.84-1.26c2.02-0.78,3.76-2.15,4.99-3.93c1.22-1.75,1.87-3.84,1.84-5.97
			c0.13-2.67-1.02-5.25-3.08-6.95c-2.06-1.68-5.33-2.52-9.81-2.52L78.97,9.63z M78.97,36.73v24.71h15.72
			c4.69,0,8.13-0.46,10.32-1.39c2.14-0.89,3.97-2.38,5.28-4.3c2.94-4.26,2.61-9.96-0.8-13.85c-2.04-2.24-4.74-3.78-7.71-4.39
			c-2.2-0.52-6.01-0.78-11.42-0.78L78.97,36.73z"/>
		<path id="Trazado_108" class="st0" d="M161.25,2.38c9.73,0,17.87,3.26,24.43,9.77s9.84,14.53,9.83,24.06
			c0,9.41-3.27,17.14-9.81,23.19c-6.54,6.05-14.52,9.08-23.93,9.08c-9.55,0-17.62-3.26-24.19-9.79c-6.57-6.53-9.86-13.92-9.85-22.17
			c-0.04-6.02,1.5-11.95,4.47-17.2c2.87-5.19,7.11-9.49,12.25-12.44C149.55,3.9,155.35,2.35,161.25,2.38 M161.52,8.72
			c-9.72,0.08-18.66,5.32-23.49,13.74c-2.39,4.29-3.62,9.14-3.56,14.05c0,7.64,2.64,13.84,7.92,18.59s11.66,7.12,19.12,7.12
			c4.86,0.03,9.64-1.23,13.85-3.65c4.16-2.34,7.6-5.77,9.95-9.92c2.26-3.76,3.48-8.05,3.56-12.44c0.06-4.85-1.17-9.63-3.56-13.85
			c-2.39-4.15-5.85-7.58-10.03-9.92C171.1,9.99,166.35,8.71,161.52,8.72"/>
		<path id="Trazado_109" class="st0" d="M208.54,2.46h6.43v38.86c-0.08,2.88,0.03,5.77,0.3,8.64c0.22,2.27,0.98,4.45,2.21,6.36
			c1.38,1.87,3.23,3.34,5.36,4.26c2.28,1.11,4.78,1.7,7.32,1.72c2.11,0.55,5.02,0.36,8.73-0.56c3.71-0.93,6.21-2.31,7.51-4.15
			c1.32-1.89,2.3-4,2.87-6.23c0.46-1.62,0.69-4.96,0.7-10.03V2.46h6.43v38.86c0,5.76-0.56,10.41-1.69,13.96
			c-1.24,3.71-3.6,6.94-6.75,9.25c-3.37,2.62-9.19,3.93-17.43,3.93c-5.21,0-9.66-1.24-13.35-3.73c-3.55-2.3-6.17-5.77-7.4-9.81
			c-0.81-2.55-1.22-7.08-1.22-13.59L208.54,2.46z"/>
		<path id="Trazado_110" class="st0" d="M264.91,9.76V3.51h35.35v6.25h-14.42V67.9h-6.56V9.76H264.91z"/>
		<path id="Trazado_111" class="st0" d="M328.78,67.9l9.16-64.39h1.04l26.18,52.8l25.88-52.8h1.04l9.29,64.39H395l-6.3-46.07
			L365.95,67.9h-1.65l-23.06-46.37l-6.25,46.37H328.78z"/>
		<path id="Trazado_112" class="st0" d="M431.94,61.7c2.06-0.01,4.12-0.01,6.17-0.02c4.02-0.01,8.12-0.2,12.14,0.06
			c0.14,0.01,0.28,0.04,0.42,0.05v-0.27h-22.69C429.19,61.92,430.76,61.7,431.94,61.7"/>
		<path id="Trazado_113" class="st0" d="M450.67,61.79c-0.14-0.02-0.28-0.04-0.42-0.05c-4.02-0.27-8.11-0.07-12.14-0.06
			c-2.06,0.01-4.12,0.01-6.18,0.02c-1.18,0-2.75,0.22-3.96-0.18h-7.53V36.25h18.59v-6.25h-18.59V9.85h30.48V3.51h-36.91V67.9h36.08
			c1.07,0,2.04,0.6,2.52,1.56c0.68,1.4,0.17,3.09-1.17,3.88c-1.43,0.81-3.78,0.37-5.35,0.37c-1.89,0-3.78,0-5.66,0h-6.07
			c-0.95-0.06-1.91-0.04-2.85,0.07H4.33c-1.64,0-2.97,1.33-2.97,2.97c0,0,0,0,0,0v0.19c0,1.64,1.33,2.97,2.97,2.97c0,0,0,0,0,0
			h259.99c0.11,0.02,0.21,0.03,0.32,0.03h2.68c0-0.01,0-0.02,0-0.03h8.61c0,0.01,0,0.02,0,0.03h157.86c2.1,0.06,4.21,0.04,6.32,0
			h6.21c2.55,0.08,5.23,0.12,7.49-0.95c2.42-1.19,4.2-3.37,4.89-5.98C460.15,67.52,456.06,62.4,450.67,61.79"/>
	</g>
</g>
</svg>
