<?xml version="1.0" encoding="utf-8"?>
<!-- Generator: Adobe Illustrator 27.4.0, SVG Export Plug-In . SVG Version: 6.00 Build 0)  -->
<svg version="1.1" id="Capa_1" xmlns="http://www.w3.org/2000/svg" xmlns:xlink="http://www.w3.org/1999/xlink" x="0px" y="0px"
	 viewBox="0 0 132 212" style="enable-background:new 0 0 132 212;" xml:space="preserve">
<style type="text/css">
	.st0{fill:#FFFFFF;stroke:#FFFFFF;stroke-width:0.5;stroke-miterlimit:10;}
</style>
<g>
	<path class="st0" d="M64.3,147.85c5.8,0,11.6-0.03,17.39-0.01c4.49,0.01,9-0.39,12.91,2.21c6.81,4.54,7.69,14.56,1.72,20.17
		c-3.34,3.14-7.25,3.47-11.62,3.47c-5.78,0-11.57,0-17.35,0c-5.93,0-12.03-0.42-17.95,0c-3.88,0.27-6.31,5.14-2.51,7.6
		c1.76,1.15,4.55,0.68,6.54,0.68c2.92-0.01,5.84-0.02,8.76-0.02c5.71-0.01,11.53-0.29,17.23,0.09c7.95,0.53,14.1,8,12.01,15.97
		c-0.96,3.64-3.52,6.86-6.93,8.49c-4.16,1.98-9.33,1.29-13.79,1.29c-5.6,0-11.3,0.31-16.89,0c-3.85-0.22-6.73-4.64-3.23-7.66
		c1.7-1.47,4.22-1.1,6.29-1.1c2.87,0,5.74,0,8.62,0c2.68,0,5.36,0,8.04,0c2.24,0,5.56,0.62,7.6-0.53c1.9-1.07,2.63-3.58,1.67-5.5
		c-1.24-2.48-3.76-2.26-6.14-2.26c-5.78,0-11.56,0-17.34,0c-8.5,0-19.62,0.86-22.49-9.45c-2.44-8.76,4.9-16.14,13.34-16.41
		c11.78-0.36,23.63,0.03,35.41,0.02c1.83,0,3.83,0.16,5.16-1.35c1.15-1.31,1.25-3.47,0.38-4.96c-1.18-2.02-3.29-1.98-5.36-2
		c-3.07-0.02-6.15,0.01-9.22,0.01c-11.38,0-22.77,0.07-34.15,0c-9.23-0.05-14.4-5.94-14.6-14.93c-0.22-9.8-2.77-19.41-7.41-28.04
		c-4.71-8.77-11.09-16.16-14.44-25.7c-6.83-19.44-3.6-41.53,8.47-58.23C25.15,14.79,41.89,5.29,60.15,3.33
		c19.55-2.1,39.81,5.87,53.06,20.3c13.71,14.93,19.87,36.32,15.63,56.21c-2.25,10.55-7,19.13-13.01,27.93
		c-2.72,3.99-5.03,8.26-6.81,12.75c-1.89,4.8-2.68,9.63-3.78,14.62c-0.81,3.7-5.6,6.55-8.04,2.31c-1.14-1.98-0.37-4.46,0.01-6.55
		c0.52-2.82,1.18-5.62,2.01-8.37c3.03-10.08,8.8-17.93,14.28-26.71c10.22-16.39,10.75-38.65,1.25-55.49
		c-9.25-16.39-25.9-27.06-44.64-28.47c-19.31-1.45-38.35,7.83-49.28,23.8C9.78,51.82,7.72,73.11,16.24,90.87
		c4.31,8.99,11.08,16.34,14.89,25.68c1.84,4.51,3.21,9.19,4.12,13.97c0.51,2.68,0.91,5.39,1.12,8.11c0.17,2.15-0.31,4.83,0.56,6.84
		c1.59,3.66,7.57,2.38,10.72,2.38C53.19,147.85,58.74,147.85,64.3,147.85z"/>
	<path class="st0" d="M108.82,65.54c0,2.02-0.04,4.09-2,5.24c-1.68,0.98-4.15,0.71-5.48-0.74c-1.63-1.77-1.13-4.87-1.39-7.07
		c-0.31-2.72-0.93-5.38-1.89-7.94c-3.16-8.42-9.67-15.38-17.88-19.04c-4.84-2.16-9.46-2.12-14.53-3.06
		c-4.12-0.76-5.46-6.77-1.06-8.32c3.91-1.37,10.24,0.41,14.08,1.55c4.64,1.37,9,3.59,12.85,6.51c9.05,6.85,15.9,17.67,17.07,29.11
		C108.71,63.02,108.87,64.27,108.82,65.54z"/>
</g>
</svg>
