<?xml version="1.0" encoding="utf-8"?>
<!-- Generator: Adobe Illustrator 27.4.0, SVG Export Plug-In . SVG Version: 6.00 Build 0)  -->
<svg version="1.1" id="Capa_1" xmlns="http://www.w3.org/2000/svg" xmlns:xlink="http://www.w3.org/1999/xlink" x="0px" y="0px"
	 viewBox="0 0 51 80" style="enable-background:new 0 0 51 80;" xml:space="preserve">
<style type="text/css">
	.st0{fill:#FFFFFF;stroke:#FFFFFF;stroke-width:0.5;stroke-miterlimit:10;}
</style>
<g>
	<path class="st0" d="M24.32,55.82c2.2,0,4.41-0.01,6.61-0.01c1.7,0,3.42-0.15,4.9,0.84c2.59,1.72,2.92,5.53,0.65,7.66
		c-1.27,1.19-2.75,1.32-4.41,1.32c-2.2,0-4.39,0-6.59,0c-2.25,0-4.57-0.16-6.82,0c-1.47,0.1-2.4,1.95-0.95,2.89
		c0.67,0.44,1.73,0.26,2.48,0.26c1.11,0,2.22-0.01,3.33-0.01c2.17-0.01,4.38-0.11,6.54,0.03c3.02,0.2,5.36,3.04,4.56,6.07
		c-0.36,1.38-1.34,2.61-2.63,3.22c-1.58,0.75-3.55,0.49-5.24,0.49c-2.13,0-4.29,0.12-6.42,0c-1.46-0.08-2.56-1.76-1.23-2.91
		c0.65-0.56,1.6-0.42,2.39-0.42c1.09,0,2.18,0,3.27,0c1.02,0,2.04,0,3.06,0c0.85,0,2.11,0.24,2.89-0.2c0.72-0.41,1-1.36,0.63-2.09
		c-0.47-0.94-1.43-0.86-2.33-0.86c-2.2,0-4.39,0-6.59,0c-3.23,0-7.45,0.33-8.55-3.59c-0.93-3.33,1.86-6.13,5.07-6.23
		c4.47-0.14,8.98,0.01,13.45,0.01c0.7,0,1.46,0.06,1.96-0.51c0.44-0.5,0.48-1.32,0.14-1.88c-0.45-0.77-1.25-0.75-2.04-0.76
		c-1.17-0.01-2.34,0-3.5,0c-4.32,0-8.65,0.03-12.97,0c-3.51-0.02-5.47-2.26-5.55-5.67c-0.08-3.72-1.05-7.37-2.82-10.65
		c-1.79-3.33-4.21-6.14-5.49-9.76c-2.59-7.39-1.37-15.78,3.22-22.12C9.45,5.27,15.81,1.66,22.75,0.92
		c7.42-0.8,15.12,2.23,20.16,7.71c5.21,5.67,7.55,13.8,5.94,21.35c-0.86,4.01-2.66,7.27-4.94,10.61c-1.03,1.51-1.91,3.14-2.59,4.84
		c-0.72,1.82-1.02,3.66-1.43,5.56c-0.31,1.4-2.13,2.49-3.06,0.88c-0.43-0.75-0.14-1.69,0.01-2.49c0.2-1.07,0.45-2.14,0.76-3.18
		c1.15-3.83,3.34-6.81,5.42-10.15c3.88-6.23,4.08-14.68,0.48-21.08C39.97,8.75,33.65,4.7,26.53,4.16
		C19.19,3.61,11.96,7.13,7.81,13.2c-4.2,6.13-4.98,14.22-1.74,20.97c1.64,3.42,4.21,6.21,5.65,9.76c0.7,1.71,1.22,3.49,1.56,5.31
		c0.19,1.02,0.35,2.05,0.43,3.08c0.06,0.82-0.12,1.84,0.21,2.6c0.61,1.39,2.88,0.9,4.07,0.9C20.1,55.82,22.21,55.82,24.32,55.82z"/>
	<path class="st0" d="M41.24,24.55c0,0.77-0.01,1.55-0.76,1.99c-0.64,0.37-1.58,0.27-2.08-0.28c-0.62-0.67-0.43-1.85-0.53-2.69
		c-0.12-1.03-0.35-2.04-0.72-3.02c-1.2-3.2-3.67-5.84-6.79-7.23c-1.84-0.82-3.59-0.81-5.52-1.16c-1.56-0.29-2.07-2.57-0.4-3.16
		c1.49-0.52,3.89,0.16,5.35,0.59c1.76,0.52,3.42,1.36,4.88,2.47c3.44,2.6,6.04,6.71,6.48,11.06C41.19,23.59,41.26,24.07,41.24,24.55
		z"/>
</g>
</svg>
