<?xml version="1.0" encoding="utf-8"?>
<!-- Generator: Adobe Illustrator 27.4.0, SVG Export Plug-In . SVG Version: 6.00 Build 0)  -->
<svg version="1.1" id="Capa_1" xmlns="http://www.w3.org/2000/svg" xmlns:xlink="http://www.w3.org/1999/xlink" x="0px" y="0px"
	 viewBox="0 0 290 238" style="enable-background:new 0 0 290 238;" xml:space="preserve">
<style type="text/css">
	.st0{fill:#FFFFFF;}
	.st1{fill:none;}
	.st2{font-family:'CenturyGothic';}
	.st3{font-size:23.8769px;}
</style>
<g>
	<g>
		<g>
			<path class="st0" d="M131.13,203.69c0.36-3.31,0.09-6.7,0.09-10.05s-0.01-6.71,0-10.06c0.03-10.9-5.29-18.74-14.3-24.21
				c-8.74-5.31-20.48-4.25-28.88,2.29c-8.32,6.47-12.28,17.92-9.47,27.44c3.01,10.23,13.39,19.57,22.65,20.31
				c1.33,0.11,3.22,0.84,3.4-1.45c0.14-1.73,0.89-3.92-1.82-4.64c-1.41-0.38-2.86-0.69-4.21-1.23
				c-12.09-4.76-17.75-17.53-12.43-27.96c4.32-8.48,13.73-13.25,22.43-11.38c8.97,1.93,15.64,9.59,16.15,19.24
				c0.38,7.11-0.02,14.25,0.25,21.37c0.09,2.39-2.02,6.41,3.28,6.34C133.23,209.61,130.89,205.86,131.13,203.69z"/>
			<path class="st0" d="M224.23,156.13c-13.23,0-24.17,9.7-26.14,22.37c0,0.03-0.01,0.05-0.01,0.08c-0.05,0.29-0.09,0.57-0.11,0.86
				c0,0.01,0,0.01,0,0.03c0.01,1.73,1.34,3.12,2.96,3.12c1.12,0,2.09-0.66,2.6-1.63c0.05-0.73,0.15-1.45,0.3-2.15
				c0-0.01,0-0.01,0-0.01c1.81-9.32,10.27-16.38,20.41-16.38c11.48,0,20.79,9.03,20.79,20.17c0,10.93-8.97,19.84-20.16,20.16
				c-0.11,0.01-0.21,0.01-0.33,0.01c-1.59,0.16-2.82,1.51-2.82,3.14c0,1.62,1.23,2.97,2.82,3.14h0.06c0.24,0.01,0.47,0,0.69-0.01
				c14.12-0.55,25.4-12.17,25.4-26.43C250.69,167.97,238.84,156.13,224.23,156.13z"/>
			<path class="st0" d="M163.76,157.39c-14.61,0-26.45,11.84-26.45,26.45c0,4.06,0.92,7.91,2.56,11.35c0.19,0.4,0.39,0.81,0.6,1.21
				c4.13,7.65,11.93,13.03,21.04,13.79h0.01c0.3,0.13,0.63,0.2,0.98,0.2c0.26,0,0.52-0.04,0.74-0.11c1.03-0.34,1.78-1.34,1.78-2.51
				c0-1.27-0.87-2.32-2.02-2.57c0,0,0,0-0.01,0c-0.16-0.01-0.33-0.03-0.49-0.05h-0.05c-8.55-0.78-15.62-6.76-17.99-14.76
				c-0.04-0.11-0.08-0.24-0.1-0.35c-0.49-1.78-0.76-3.64-0.76-5.57c0-11.48,9.31-20.79,20.79-20.79c11.48,0,20.79,9.31,20.79,20.79
				v9.21v1.36v19.34c0.06,0.52,0.06,1.04,0,1.56v0.79c-0.08,0.16-0.17,0.32-0.26,0.48c-0.15,0.51-0.36,1-0.63,1.46
				c-0.01,0.02-0.02,0.04-0.03,0.05c-0.06,0.1-0.14,0.2-0.21,0.3c-0.19,0.34-0.43,0.66-0.69,0.96c-0.26,0.38-0.57,0.74-0.92,1.05
				c-4.5,5.73-11.46,9.43-19.31,9.43c-7.33,0-13.91-3.21-18.4-8.3c-0.34-0.38-0.67-0.77-0.98-1.17c-0.54-0.39-1.26-0.6-2.03-0.6
				c-1.74,0-3.15,1.13-3.15,2.52c0,0.35,0.09,0.68,0.25,0.98c0,0,0,0.01,0.01,0.03c0.09,0.14,0.18,0.26,0.28,0.4
				c4.99,7.47,13.88,12.45,24.02,12.45c8.92,0,16.87-3.84,22.05-9.84c2-2.29,3.59-4.9,4.67-7.75c0.05-0.08,0.08-0.16,0.12-0.25
				c0.05-0.65,0.14-1.3,0.25-1.94v-33.13c0-2.17-0.26-4.28-0.76-6.3C186.64,165.97,176.21,157.39,163.76,157.39z"/>
			<path class="st0" d="M68.13,157.39h-1.47c-1.33,0-2.42,1.08-2.42,2.42v48.08c0,1.33,1.08,2.42,2.42,2.42h1.47
				c1.33,0,2.42-1.08,2.42-2.42V159.8C70.54,158.47,69.46,157.39,68.13,157.39z"/>
			<path class="st0" d="M53.13,143.53h-1.71H4.81c-1.27,0-2.29,1.03-2.29,2.29v1.71c0,1.27,1.03,2.29,2.29,2.29h44.32V208
				c0,1.27,1.03,2.29,2.29,2.29h1.71c1.27,0,2.29-1.03,2.29-2.29v-60.47v-1.71C55.42,144.56,54.4,143.53,53.13,143.53z"/>
			<path class="st0" d="M67.39,153.61c2.44,0,4.41-1.69,4.41-3.78h-8.82C62.98,151.92,64.96,153.61,67.39,153.61z"/>
			<path class="st0" d="M274.56,17.01C265.01,6.6,250.4,0.86,236.31,2.37c-13.16,1.41-25.23,8.26-33,19
				c-8.71,12.04-11.03,27.96-6.11,41.98c2.42,6.88,7.01,12.21,10.41,18.53c3.35,6.23,5.18,13.15,5.35,20.22
				c0.15,6.48,3.87,10.72,10.53,10.76c8.21,0.05,16.42,0,24.62,0c2.22,0,4.43-0.02,6.65-0.01c1.49,0.01,3.01-0.01,3.86,1.44
				c0.63,1.08,0.56,2.63-0.27,3.58c-0.96,1.09-2.4,0.97-3.72,0.98c-8.5,0.01-17.04-0.28-25.54-0.01
				c-6.09,0.19-11.38,5.51-9.62,11.83c2.07,7.44,10.09,6.82,16.22,6.82c4.17,0,8.33,0,12.5,0c1.72,0,3.53-0.16,4.43,1.63
				c0.69,1.39,0.17,3.19-1.2,3.97c-1.47,0.83-3.87,0.38-5.48,0.38c-1.93,0-3.87,0-5.8,0c-2.07,0-4.14,0-6.21,0
				c-0.92,0-1.97-0.1-2.92,0.07H60.24c-1.27,0-2.29,1.03-2.29,2.29v1.71c0,1.27,1.03,2.29,2.29,2.29h2.75
				c0-2.09,1.97-3.78,4.41-3.78c2.44,0,4.41,1.69,4.41,3.78h161.56c2.15,0.06,4.31,0.04,6.46,0h6.36c2.61,0.08,5.35,0.12,7.66-0.98
				c2.46-1.17,4.31-3.49,5-6.12c1.51-5.75-2.93-11.14-8.66-11.52c-4.11-0.27-8.3-0.07-12.42-0.06c-2.11,0.01-4.21,0.01-6.32,0.02
				c-1.43,0-3.44,0.34-4.71-0.49c-2.74-1.78-0.98-5.28,1.81-5.48c4.27-0.3,8.67,0,12.94,0c4.17,0,8.34,0,12.51,0
				c3.15,0,5.96-0.24,8.38-2.5c4.31-4.05,3.67-11.27-1.24-14.54c-2.82-1.88-6.07-1.59-9.31-1.59c-4.18-0.01-8.36,0.01-12.54,0.01
				c-4,0-8.01,0-12.01,0c-2.27,0-6.58,0.93-7.73-1.71c-0.63-1.45-0.28-3.38-0.4-4.93c-0.15-1.96-0.44-3.91-0.81-5.85
				c-0.66-3.45-1.64-6.83-2.97-10.07c-2.75-6.73-7.62-12.03-10.73-18.52c-6.14-12.8-4.65-28.16,3.31-39.8
				c7.88-11.51,21.61-18.21,35.53-17.16c13.51,1.02,25.52,8.71,32.19,20.53c6.85,12.14,6.47,28.19-0.9,40.01
				c-3.95,6.33-8.11,11.99-10.3,19.26c-0.6,1.98-1.07,4-1.45,6.04c-0.28,1.5-0.43,2.54,0.39,3.97c2.1,1.92,4.92,0.13,5.51-2.54
				c0.79-3.6,1.25-5.46,2.61-8.92c1.28-3.24,2.94-6.32,4.91-9.19c4.34-6.35,7.76-12.53,9.38-20.14
				C288.89,43.2,284.45,27.77,274.56,17.01z"/>
			<path class="st0" d="M266.34,44.38c0.15,1.32-0.14,3.16,0.82,4.22c0.79,0.87,2.25,1.03,3.25,0.44c1.16-0.68,1.18-1.92,1.18-3.13
				c0.03-0.75-0.06-1.5-0.14-2.25c-0.69-6.83-4.75-13.29-10.11-17.38c-2.29-1.74-4.86-3.07-7.61-3.89
				c-2.27-0.68-6.02-1.74-8.34-0.92c-2.61,0.92-1.81,4.51,0.63,4.96c3,0.56,5.74,0.54,8.61,1.83c4.86,2.19,8.72,6.34,10.59,11.37
				C265.79,41.17,266.15,42.76,266.34,44.38z"/>
		</g>
		<rect x="2" y="115.24" class="st1" width="371.54" height="105.48"/>
		<text transform="matrix(1 0 0 1 2 132.8105)" class="st0 st2 st3">Industrial Designer</text>
	</g>
</g>
</svg>
